<svg id="svg" version="1.1" xmlns="http://www.w3.org/2000/svg" xmlns:xlink="http://www.w3.org/1999/xlink" width="400" height="400" viewBox="0, 0, 400,400"><g id="svgg"><path id="path0" d="M197.400 199.204 C 196.740 199.387,195.181 199.740,193.936 199.989 C 191.544 200.467,186.470 204.757,185.052 207.499 C 182.767 211.918,183.209 222.394,185.774 224.600 C 186.286 225.040,187.001 225.985,187.363 226.700 C 187.724 227.415,188.196 228.000,188.411 228.000 C 188.625 228.000,189.506 228.727,190.369 229.615 C 191.813 231.104,192.256 231.298,196.003 232.078 L 200.069 232.925 204.062 232.084 C 208.111 231.231,208.207 231.180,211.739 228.000 C 218.383 222.017,219.091 211.006,213.220 204.981 C 208.340 199.974,202.426 197.814,197.400 199.204 M141.356 220.611 C 140.162 222.434,140.849 230.806,142.406 233.400 C 143.058 234.486,143.450 235.708,144.160 238.869 C 144.292 239.457,144.823 240.447,145.341 241.069 C 145.859 241.691,146.586 243.124,146.958 244.253 C 147.329 245.382,148.010 246.642,148.472 247.053 C 148.933 247.464,149.564 248.399,149.874 249.131 C 151.678 253.395,160.802 262.591,166.615 266.005 C 167.556 266.557,168.658 267.309,169.063 267.674 C 169.468 268.040,170.811 268.716,172.046 269.178 C 173.281 269.639,174.604 270.363,174.987 270.786 C 175.379 271.219,176.877 271.826,178.420 272.177 C 179.926 272.520,181.954 273.224,182.928 273.741 C 187.834 276.350,212.168 276.360,217.303 273.755 C 218.349 273.224,220.271 272.541,221.574 272.237 C 222.877 271.933,224.541 271.238,225.271 270.692 C 226.002 270.146,227.244 269.493,228.031 269.241 C 229.353 268.819,232.413 266.900,237.400 263.367 C 241.832 260.227,247.832 253.677,250.130 249.469 C 250.751 248.331,251.583 247.040,251.980 246.600 C 252.376 246.160,253.007 244.855,253.382 243.700 C 253.757 242.545,254.187 241.600,254.336 241.600 C 254.870 241.600,255.699 239.827,256.468 237.036 C 256.898 235.476,257.479 233.840,257.759 233.400 C 259.218 231.109,260.033 223.403,259.061 221.083 L 258.426 219.565 242.674 219.683 C 225.281 219.812,226.052 219.688,225.236 222.494 C 224.963 223.432,224.448 224.740,224.091 225.400 C 223.734 226.060,222.982 227.513,222.421 228.628 C 221.821 229.819,219.915 232.130,217.800 234.228 C 214.468 237.534,213.605 238.200,210.220 240.076 C 205.444 242.724,192.762 242.204,188.535 239.188 C 187.619 238.535,186.665 238.000,186.416 238.000 C 185.604 238.000,178.737 230.643,178.016 229.000 C 177.629 228.120,176.853 226.723,176.291 225.895 C 175.729 225.067,175.152 223.717,175.010 222.895 C 174.443 219.612,175.529 219.815,157.804 219.683 L 142.041 219.565 141.356 220.611 " stroke="none" fill="#dfdee3" fill-rule="evenodd"></path><path id="path1" d="M197.549 30.265 C 196.793 31.181,194.173 32.259,191.932 32.575 C 190.431 32.788,189.859 33.110,189.012 34.220 C 188.433 34.979,187.630 35.600,187.229 35.600 C 186.347 35.600,185.796 36.240,185.458 37.659 C 185.319 38.241,184.574 39.473,183.803 40.397 C 183.031 41.320,182.400 42.518,182.400 43.058 C 182.400 44.328,181.427 46.196,180.385 46.925 C 179.907 47.260,179.466 48.144,179.327 49.050 C 179.017 51.053,178.193 52.668,177.213 53.193 C 176.752 53.440,176.332 54.219,176.182 55.105 C 175.778 57.501,175.649 57.801,174.435 59.161 C 173.701 59.983,173.185 61.106,173.012 62.257 C 172.828 63.486,172.320 64.531,171.420 65.531 C 170.554 66.494,169.996 67.613,169.801 68.779 C 169.601 69.970,169.098 70.962,168.278 71.779 C 167.397 72.658,166.965 73.561,166.740 75.000 C 166.509 76.473,166.113 77.283,165.237 78.074 C 164.498 78.740,163.941 79.727,163.770 80.674 C 163.407 82.684,162.927 83.628,161.769 84.610 C 161.124 85.156,160.682 86.132,160.409 87.610 C 160.110 89.225,159.688 90.087,158.802 90.894 C 158.080 91.552,157.600 92.387,157.600 92.986 C 157.600 94.547,156.404 97.145,155.564 97.412 C 155.145 97.545,154.703 98.136,154.583 98.727 C 153.953 101.813,153.503 102.815,152.390 103.607 C 151.528 104.221,151.200 104.782,151.200 105.640 C 151.200 107.268,150.231 109.448,149.280 109.957 C 148.813 110.207,148.385 110.992,148.227 111.889 C 147.741 114.640,147.188 115.877,146.251 116.304 C 145.541 116.628,145.218 117.262,144.862 119.032 C 144.398 121.342,143.513 122.800,142.576 122.800 C 142.274 122.800,141.962 123.637,141.791 124.900 C 141.437 127.522,141.015 128.338,139.769 128.812 C 139.228 129.017,138.617 129.629,138.411 130.172 C 137.720 131.989,136.614 132.319,130.200 132.625 C 125.322 132.857,124.027 133.045,123.276 133.632 C 121.853 134.743,118.762 135.210,110.544 135.557 C 103.390 135.860,102.923 135.929,101.514 136.891 C 99.651 138.163,97.967 138.414,88.978 138.758 C 82.436 139.009,81.639 139.118,80.524 139.912 C 78.756 141.171,76.399 141.515,67.600 141.803 C 60.622 142.030,59.712 142.139,58.964 142.838 C 57.596 144.116,55.822 144.417,47.000 144.871 C 40.661 145.197,38.522 145.438,38.280 145.851 C 37.780 146.709,35.789 147.592,33.328 148.047 C 31.557 148.375,30.820 148.752,29.881 149.812 C 29.225 150.554,28.173 151.274,27.544 151.412 C 26.802 151.575,26.400 151.917,26.400 152.383 C 26.400 153.599,25.232 155.977,24.190 156.884 C 23.213 157.733,23.200 157.830,23.200 164.200 L 23.200 170.656 24.427 172.028 C 25.102 172.783,25.852 174.137,26.093 175.037 C 26.425 176.273,26.813 176.780,27.676 177.106 C 28.385 177.374,28.980 177.996,29.239 178.740 C 29.512 179.524,30.076 180.088,30.860 180.361 C 31.628 180.629,32.227 181.217,32.519 181.990 C 32.770 182.655,33.268 183.200,33.626 183.200 C 34.431 183.200,35.600 184.443,35.600 185.300 C 35.600 185.672,36.172 186.127,36.968 186.389 C 37.927 186.706,38.461 187.198,38.753 188.036 C 39.022 188.809,39.590 189.377,40.359 189.646 C 41.169 189.928,41.626 190.409,41.789 191.152 C 41.963 191.942,42.383 192.347,43.315 192.621 C 44.277 192.905,44.696 193.327,44.983 194.300 C 45.204 195.052,45.630 195.600,45.994 195.600 C 47.069 195.600,48.400 196.802,48.400 197.773 C 48.400 198.489,48.681 198.756,49.634 198.947 C 50.519 199.124,50.993 199.526,51.312 200.373 C 51.575 201.070,52.144 201.650,52.700 201.789 C 53.218 201.919,54.002 202.636,54.442 203.381 C 54.882 204.126,55.742 204.911,56.354 205.124 C 57.022 205.357,57.673 206.011,57.984 206.761 C 58.290 207.500,58.889 208.107,59.449 208.248 C 59.971 208.379,60.625 208.960,60.902 209.539 C 61.180 210.119,61.912 210.835,62.529 211.130 C 63.146 211.426,63.761 211.954,63.895 212.304 C 64.147 212.960,65.451 214.400,65.794 214.400 C 65.980 214.400,72.014 220.185,81.231 229.200 C 83.593 231.510,86.795 234.570,88.346 236.000 C 89.897 237.430,91.384 239.005,91.650 239.500 C 91.917 239.995,92.369 240.400,92.656 240.400 C 92.942 240.400,93.586 240.958,94.088 241.639 C 94.590 242.320,95.450 243.114,96.000 243.403 C 96.550 243.692,97.359 244.619,97.798 245.464 C 98.237 246.309,98.889 247.219,99.247 247.487 C 100.954 248.764,100.938 254.927,99.224 256.418 C 98.626 256.938,98.448 258.173,98.096 264.237 C 97.680 271.419,97.218 273.625,95.903 274.715 C 95.418 275.117,95.223 276.520,95.015 281.115 C 94.668 288.752,94.254 291.091,93.021 292.379 C 92.088 293.354,92.033 293.707,91.787 300.200 C 91.514 307.428,91.182 309.272,89.900 310.680 C 89.200 311.448,89.057 312.394,88.766 318.174 C 88.404 325.386,88.040 327.333,86.749 328.974 C 86.004 329.921,85.858 330.841,85.559 336.494 C 85.213 343.020,84.502 346.686,83.404 347.597 C 82.277 348.532,82.569 354.443,83.798 355.599 C 84.458 356.218,84.962 357.334,85.282 358.884 C 85.672 360.776,86.023 361.427,87.083 362.236 C 87.808 362.789,88.400 363.504,88.400 363.827 C 88.400 364.149,89.012 364.705,89.761 365.062 C 90.510 365.419,91.300 366.101,91.517 366.578 C 91.834 367.272,92.466 367.530,94.708 367.877 C 96.246 368.115,98.452 368.786,99.611 369.368 L 101.717 370.426 104.569 369.239 C 106.138 368.586,108.386 367.923,109.565 367.767 C 110.930 367.586,111.943 367.202,112.354 366.710 C 113.202 365.695,114.650 364.970,116.495 364.636 C 117.366 364.479,118.164 364.040,118.407 363.587 C 118.939 362.593,120.552 361.769,122.648 361.421 C 123.860 361.220,124.414 360.888,124.743 360.166 C 125.257 359.037,126.655 358.400,128.616 358.400 C 129.715 358.400,130.095 358.176,130.578 357.243 C 131.208 356.024,132.931 355.200,134.849 355.200 C 135.697 355.200,136.132 354.904,136.592 354.015 C 137.185 352.868,138.001 352.485,141.273 351.817 C 141.864 351.697,142.452 351.266,142.581 350.860 C 142.881 349.914,144.453 349.203,146.881 348.916 C 148.122 348.769,148.800 348.496,148.800 348.144 C 148.800 347.157,150.288 346.089,152.058 345.806 C 153.284 345.610,154.162 345.142,155.021 344.227 C 155.829 343.368,156.777 342.838,157.821 342.664 C 158.726 342.514,159.981 341.886,160.760 341.196 C 161.532 340.511,162.781 339.885,163.649 339.746 C 164.613 339.592,165.683 339.011,166.542 338.178 C 167.380 337.364,168.500 336.748,169.452 336.579 C 170.304 336.428,171.540 335.808,172.200 335.200 C 173.753 333.771,174.895 333.200,176.200 333.200 C 176.872 333.200,177.608 332.777,178.240 332.025 C 178.953 331.178,179.821 330.728,181.358 330.409 C 182.981 330.072,183.591 329.738,183.925 329.004 C 184.352 328.069,187.429 326.800,189.273 326.800 C 189.673 326.800,190.000 326.524,190.000 326.187 C 190.000 325.849,190.632 325.200,191.404 324.745 L 192.808 323.916 192.704 304.858 L 192.600 285.800 187.600 285.553 C 182.584 285.304,180.313 284.742,179.275 283.491 C 178.948 283.096,177.745 282.753,176.075 282.579 C 173.047 282.263,171.367 281.558,171.018 280.457 C 170.851 279.931,170.258 279.635,169.041 279.468 C 166.617 279.135,165.220 278.418,164.957 277.370 C 164.798 276.738,164.329 276.401,163.355 276.218 C 161.845 275.935,159.200 274.516,159.200 273.989 C 159.200 273.807,158.489 273.344,157.620 272.961 C 156.658 272.537,155.865 271.839,155.590 271.176 C 155.290 270.451,154.743 270.009,153.952 269.850 C 153.082 269.676,152.611 269.244,152.189 268.235 C 151.812 267.333,151.301 266.813,150.707 266.729 C 150.143 266.649,149.592 266.127,149.250 265.350 C 148.941 264.650,148.158 263.859,147.467 263.550 C 146.627 263.175,146.134 262.600,145.917 261.743 C 145.694 260.861,145.294 260.410,144.573 260.229 C 143.913 260.063,143.348 259.494,142.987 258.629 C 142.678 257.891,141.885 256.747,141.224 256.086 C 140.458 255.320,139.928 254.293,139.762 253.253 C 139.558 251.979,139.219 251.454,138.216 250.863 C 137.132 250.223,136.858 249.741,136.465 247.781 C 136.106 245.992,135.713 245.218,134.761 244.424 C 133.652 243.498,133.500 243.100,133.299 240.604 C 133.121 238.386,132.899 237.678,132.209 237.136 C 130.932 236.131,130.474 234.044,130.160 227.800 C 129.931 223.260,129.719 221.897,129.039 220.600 C 127.830 218.295,127.843 212.558,129.062 210.000 C 129.749 208.559,129.973 207.122,130.182 202.800 C 130.491 196.436,130.872 194.716,132.210 193.664 C 133.009 193.035,133.200 192.527,133.200 191.030 C 133.200 188.823,134.037 186.622,135.091 186.058 C 135.561 185.807,136.036 184.848,136.337 183.544 C 136.822 181.446,137.729 180.001,138.562 179.999 C 138.803 179.999,139.319 178.913,139.709 177.587 C 140.240 175.779,140.668 175.061,141.418 174.719 C 141.969 174.468,142.529 173.799,142.663 173.231 C 142.976 171.909,143.941 170.800,144.779 170.800 C 145.173 170.800,145.587 170.282,145.817 169.500 C 146.076 168.622,146.619 168.005,147.491 167.600 C 148.202 167.270,148.787 166.713,148.791 166.362 C 148.801 165.641,150.025 164.400,150.726 164.400 C 150.981 164.400,151.454 163.767,151.777 162.994 C 152.220 161.932,152.671 161.526,153.614 161.337 C 154.463 161.167,154.989 160.756,155.256 160.052 C 155.711 158.857,156.273 158.421,157.400 158.391 C 157.849 158.379,158.551 157.812,159.000 157.098 C 159.595 156.153,160.344 155.664,161.927 155.187 C 163.401 154.743,164.202 154.248,164.537 153.573 C 164.880 152.883,165.587 152.460,166.966 152.117 C 168.036 151.852,169.291 151.289,169.756 150.867 C 171.073 149.670,172.014 149.304,174.600 148.983 C 176.298 148.772,177.162 148.456,177.552 147.900 C 178.474 146.590,180.367 146.092,185.593 145.782 C 189.567 145.546,190.798 145.330,191.623 144.720 C 192.228 144.272,193.888 143.784,195.617 143.544 C 197.244 143.319,198.896 142.963,199.288 142.753 C 200.194 142.268,200.416 34.765,199.517 31.406 C 199.006 29.496,198.450 29.174,197.549 30.265 " stroke="none" fill="#fcd40c" fill-rule="evenodd"></path><path id="path2" d="M187.200 17.492 C 186.385 17.802,186.013 18.427,186.006 19.500 C 186.001 20.325,185.814 20.400,183.774 20.400 C 180.931 20.400,180.000 20.891,180.000 22.390 C 180.000 23.444,179.861 23.563,178.500 23.676 C 177.121 23.790,176.984 23.913,176.800 25.200 C 176.622 26.444,176.444 26.622,175.200 26.800 C 173.876 26.989,173.793 27.092,173.677 28.700 C 173.577 30.079,173.406 30.400,172.771 30.400 C 171.664 30.400,170.403 32.661,170.401 34.650 C 170.400 36.156,170.297 36.321,169.223 36.535 C 167.945 36.791,167.207 38.461,167.202 41.110 C 167.200 42.129,166.984 42.502,166.224 42.791 C 164.984 43.262,164.418 44.329,164.134 46.731 C 163.951 48.269,163.695 48.761,162.807 49.270 C 161.897 49.792,161.615 50.361,161.181 52.547 C 160.789 54.517,160.460 55.254,159.891 55.435 C 158.918 55.743,158.000 57.923,158.000 59.923 C 158.000 61.168,157.812 61.557,157.043 61.907 C 155.812 62.468,154.800 64.511,154.800 66.435 C 154.800 67.576,154.611 68.006,154.029 68.191 C 152.940 68.537,151.600 70.990,151.600 72.638 C 151.600 73.719,151.241 74.404,150.000 75.696 C 148.644 77.107,148.400 77.621,148.400 79.067 C 148.400 80.362,148.208 80.875,147.600 81.200 C 147.160 81.435,146.800 81.892,146.800 82.214 C 146.800 82.536,146.551 82.800,146.247 82.800 C 145.610 82.800,145.219 83.987,145.192 86.000 C 145.172 87.527,144.045 89.200,143.036 89.200 C 142.552 89.200,142.400 89.617,142.400 90.950 C 142.400 93.775,141.992 95.200,141.183 95.200 C 139.413 95.200,139.200 95.568,139.200 98.619 L 139.200 101.552 137.700 101.676 L 136.200 101.800 136.084 104.877 L 135.967 107.954 134.484 108.077 L 133.000 108.200 132.882 111.100 C 132.771 113.856,132.718 114.000,131.811 114.000 C 130.528 114.000,129.600 115.008,129.600 116.401 C 129.600 117.282,129.394 117.574,128.700 117.672 C 128.145 117.751,127.570 118.296,127.200 119.091 L 126.600 120.383 117.600 120.394 C 107.283 120.406,105.686 120.670,105.335 122.423 L 105.100 123.600 95.650 123.601 C 85.739 123.603,83.600 123.981,83.600 125.731 C 83.600 126.165,81.698 126.328,74.111 126.548 L 64.622 126.823 63.312 128.211 L 62.002 129.600 53.901 129.623 C 43.488 129.653,42.640 129.792,42.475 131.505 L 42.349 132.800 35.675 132.840 C 27.569 132.888,27.042 133.001,26.875 134.716 C 26.752 135.969,26.702 136.000,24.801 136.000 C 22.026 136.000,20.925 136.518,20.605 137.976 C 20.381 138.996,20.144 139.200,19.182 139.200 C 17.955 139.200,17.200 140.104,17.200 141.574 C 17.200 142.221,16.946 142.400,16.024 142.400 C 14.606 142.400,14.468 142.594,14.130 145.055 C 13.868 146.970,13.177 148.066,11.957 148.502 C 11.232 148.760,10.800 150.458,10.800 153.042 C 10.800 154.572,10.677 154.816,9.789 155.038 C 8.171 155.445,8.000 156.328,8.000 164.297 C 8.000 172.208,8.157 172.988,9.800 173.270 C 10.423 173.376,10.621 173.760,10.695 175.003 C 10.946 179.203,12.120 182.400,13.411 182.400 C 13.679 182.400,14.010 183.100,14.147 183.956 C 14.394 185.506,14.947 186.000,16.433 186.000 C 17.006 186.000,17.200 186.283,17.200 187.120 C 17.200 188.534,17.858 189.200,19.255 189.200 C 20.197 189.200,20.367 189.381,20.475 190.500 C 20.589 191.683,20.733 191.811,22.077 191.923 C 23.465 192.038,23.562 192.135,23.677 193.523 C 23.793 194.911,23.889 195.007,25.277 195.123 C 26.665 195.238,26.762 195.335,26.877 196.723 C 26.988 198.060,27.121 198.212,28.273 198.323 C 29.342 198.427,29.591 198.652,29.824 199.723 C 30.137 201.166,30.602 201.585,31.900 201.594 C 32.585 201.599,32.800 201.833,32.800 202.571 C 32.800 203.106,33.083 203.826,33.429 204.171 C 33.774 204.517,34.494 204.800,35.029 204.800 C 35.790 204.800,36.000 205.010,36.000 205.771 C 36.000 207.005,36.983 208.000,38.203 208.000 C 38.978 208.000,39.172 208.235,39.275 209.300 C 39.389 210.483,39.533 210.611,40.877 210.723 C 42.265 210.838,42.362 210.935,42.477 212.323 C 42.593 213.715,42.686 213.807,44.100 213.924 C 45.514 214.041,45.600 214.126,45.600 215.406 C 45.600 216.632,45.731 216.788,46.952 217.017 C 48.037 217.221,48.375 217.522,48.662 218.536 C 48.926 219.469,49.348 219.898,50.279 220.174 C 51.271 220.469,51.591 220.826,51.785 221.859 C 51.989 222.950,52.250 223.211,53.341 223.415 C 54.377 223.610,54.730 223.927,55.026 224.931 C 55.334 225.975,55.630 226.222,56.700 226.325 C 57.692 226.421,58.000 226.640,58.000 227.252 C 58.000 228.713,58.761 229.600,60.014 229.600 C 61.003 229.600,61.200 229.761,61.200 230.571 C 61.200 231.814,62.186 232.800,63.429 232.800 C 64.185 232.800,64.400 233.011,64.400 233.751 C 64.400 234.875,65.025 235.471,66.400 235.662 C 67.114 235.760,67.440 236.086,67.538 236.800 C 67.728 238.168,68.266 238.730,69.527 238.876 C 70.360 238.973,70.641 239.262,70.800 240.185 C 70.956 241.100,71.294 241.455,72.280 241.737 C 73.171 241.993,73.682 242.461,73.969 243.283 C 74.224 244.014,74.824 244.629,75.549 244.903 C 76.216 245.155,76.950 245.863,77.259 246.555 C 77.627 247.379,78.207 247.868,79.073 248.087 C 79.950 248.309,80.385 248.681,80.473 249.287 C 80.549 249.813,81.168 250.464,82.017 250.909 C 82.796 251.318,83.606 252.046,83.817 252.526 C 84.027 253.007,84.605 253.578,85.100 253.795 C 86.514 254.415,86.428 257.877,84.989 258.238 C 83.208 258.685,83.012 259.631,82.867 268.457 L 82.731 276.714 81.616 276.937 C 79.987 277.263,79.890 277.777,79.691 287.100 L 79.511 295.600 78.604 295.600 C 77.007 295.600,76.852 296.330,76.520 305.413 L 76.200 314.194 75.000 314.401 L 73.800 314.607 73.692 322.446 L 73.583 330.285 71.992 332.009 L 70.400 333.733 70.401 348.767 C 70.403 365.078,70.539 366.093,72.799 366.684 C 73.362 366.831,73.589 367.310,73.679 368.541 C 73.792 370.087,73.888 370.208,75.086 370.324 C 76.217 370.434,76.406 370.626,76.647 371.908 C 76.798 372.716,77.358 373.732,77.901 374.184 C 78.440 374.633,79.173 375.315,79.529 375.700 C 79.888 376.087,80.753 376.400,81.465 376.400 C 82.663 376.400,82.760 376.503,82.876 377.900 L 83.000 379.400 85.176 379.524 C 87.370 379.648,88.686 380.483,89.328 382.156 C 89.547 382.728,90.924 382.800,101.687 382.799 C 114.822 382.797,115.893 382.626,116.591 380.428 C 116.801 379.766,117.190 379.599,118.527 379.594 C 120.643 379.587,122.056 378.878,122.722 377.488 C 123.159 376.576,123.499 376.400,124.822 376.400 C 125.733 376.400,126.400 376.208,126.400 375.946 C 126.400 374.829,128.408 373.641,130.498 373.521 L 132.600 373.400 132.724 371.900 L 132.848 370.400 135.544 370.400 C 138.527 370.400,139.200 370.017,139.200 368.320 C 139.200 367.219,139.241 367.200,141.567 367.200 C 144.775 367.200,145.200 366.984,145.200 365.357 L 145.200 364.000 148.157 364.000 C 151.309 364.000,151.600 363.813,151.600 361.785 C 151.600 360.883,151.747 360.829,154.500 360.718 C 157.366 360.601,157.404 360.585,157.769 359.349 C 158.123 358.148,158.240 358.090,160.719 357.891 C 163.407 357.676,163.983 357.290,163.994 355.700 C 163.999 354.916,164.220 354.794,165.700 354.753 C 168.904 354.663,169.773 354.309,170.000 352.998 C 170.196 351.869,170.342 351.786,172.604 351.508 C 174.975 351.217,176.400 350.280,176.400 349.012 C 176.400 348.699,177.239 348.425,178.641 348.281 C 181.017 348.035,182.400 347.174,182.400 345.938 C 182.400 345.343,182.712 345.200,184.013 345.200 C 185.586 345.200,188.000 343.496,188.000 342.386 C 188.000 342.174,188.900 342.000,190.000 342.000 L 192.000 342.000 192.000 340.617 L 192.000 339.234 195.100 339.117 L 198.200 339.000 198.324 337.500 C 198.493 335.454,201.600 335.094,201.600 337.120 C 201.600 338.820,202.272 339.200,205.280 339.200 L 208.000 339.200 208.000 340.600 L 208.000 342.000 209.900 342.009 C 211.613 342.017,211.936 342.175,213.176 343.609 C 214.329 344.942,214.798 345.200,216.069 345.200 C 217.369 345.200,217.622 345.348,217.847 346.243 C 218.152 347.458,220.043 348.400,222.180 348.400 C 223.339 348.400,223.628 348.572,223.832 349.384 C 224.194 350.827,224.810 351.171,227.541 351.457 C 229.743 351.687,230.000 351.807,230.000 352.608 C 230.000 353.911,230.784 354.369,233.502 354.653 C 235.770 354.890,235.936 354.978,236.152 356.059 C 236.429 357.447,237.641 358.000,240.401 358.000 C 242.307 358.000,242.352 358.028,242.475 359.300 L 242.600 360.600 245.433 360.716 L 248.267 360.832 248.633 362.316 L 249.000 363.800 251.900 363.918 L 254.800 364.035 254.800 365.375 C 254.800 366.982,255.233 367.200,258.425 367.200 C 260.674 367.200,260.796 367.252,261.026 368.300 C 261.158 368.905,261.336 369.625,261.421 369.900 C 261.525 370.238,262.486 370.400,264.387 370.400 L 267.200 370.400 267.200 371.520 C 267.200 373.089,267.876 373.598,269.980 373.613 C 271.925 373.628,273.600 374.623,273.600 375.764 C 273.600 376.249,274.018 376.400,275.357 376.400 C 276.909 376.400,277.143 376.519,277.371 377.426 C 277.680 378.658,279.662 379.600,281.944 379.600 C 283.281 379.600,283.550 379.747,283.762 380.593 C 284.278 382.645,285.304 382.800,298.411 382.800 L 310.463 382.800 311.975 381.226 C 313.214 379.937,313.806 379.629,315.244 379.526 C 316.958 379.403,317.003 379.364,317.124 377.900 C 317.241 376.483,317.324 376.400,318.617 376.400 C 320.532 376.400,323.600 373.502,323.600 371.694 C 323.600 370.584,323.739 370.437,324.900 370.325 C 326.115 370.208,326.208 370.091,326.321 368.538 C 326.423 367.144,326.604 366.835,327.447 366.624 C 329.467 366.117,329.600 365.001,329.600 348.597 L 329.600 333.569 328.008 331.961 L 326.417 330.354 326.308 322.480 L 326.200 314.607 325.000 314.400 L 323.800 314.194 323.600 305.282 C 323.386 295.745,323.356 295.620,321.300 295.606 L 320.400 295.600 320.377 288.100 C 320.347 278.475,320.188 277.516,318.537 277.028 L 317.277 276.656 317.139 268.189 C 316.992 259.242,316.853 258.578,315.071 258.324 C 313.618 258.117,313.552 254.199,314.994 253.837 C 315.562 253.695,316.236 253.119,316.491 252.559 C 316.747 251.999,317.458 251.280,318.071 250.963 C 318.685 250.646,319.458 249.862,319.789 249.222 C 320.131 248.560,320.781 248.001,321.296 247.928 C 321.841 247.851,322.438 247.304,322.800 246.551 C 323.130 245.864,323.900 245.113,324.510 244.882 C 325.177 244.630,325.784 243.991,326.031 243.283 C 326.319 242.458,326.826 241.995,327.721 241.742 C 328.679 241.472,329.096 241.057,329.383 240.091 C 329.651 239.186,330.010 238.798,330.583 238.794 C 331.740 238.785,332.224 238.372,332.670 237.011 C 332.912 236.272,333.412 235.739,333.992 235.602 C 334.909 235.385,335.331 234.884,335.759 233.500 C 335.886 233.087,336.370 232.800,336.938 232.800 C 338.052 232.800,338.583 232.246,338.952 230.700 C 339.144 229.898,339.463 229.600,340.128 229.600 C 341.350 229.600,342.000 228.878,342.000 227.520 C 342.000 226.560,342.160 226.400,343.120 226.400 C 344.456 226.400,345.200 225.753,345.200 224.591 C 345.200 223.941,345.554 223.654,346.700 223.371 C 347.995 223.051,348.217 222.827,348.322 221.740 C 348.427 220.659,348.637 220.444,349.807 220.225 C 350.963 220.008,351.208 219.766,351.422 218.622 C 351.635 217.488,351.884 217.236,352.999 217.027 C 354.330 216.777,354.800 216.187,354.800 214.767 C 354.800 214.183,355.084 214.000,355.986 214.000 C 357.239 214.000,358.000 213.113,358.000 211.652 C 358.000 211.040,358.308 210.821,359.300 210.725 C 360.443 210.615,360.615 210.443,360.725 209.300 C 360.828 208.237,361.022 208.000,361.793 208.000 C 363.503 208.000,364.000 207.585,364.000 206.157 C 364.000 204.919,364.104 204.800,365.186 204.800 C 366.447 204.800,367.200 203.912,367.200 202.426 C 367.200 201.788,367.455 201.600,368.320 201.600 C 369.741 201.600,370.400 200.941,370.400 199.520 C 370.400 198.513,370.537 198.400,371.757 198.400 C 373.191 198.400,373.600 197.904,373.600 196.167 C 373.600 195.328,373.786 195.200,375.000 195.200 C 376.367 195.200,376.400 195.162,376.400 193.600 L 376.400 192.000 378.000 192.000 C 379.557 192.000,379.600 191.963,379.600 190.624 C 379.600 189.323,379.681 189.242,381.100 189.124 C 382.519 189.007,382.607 188.919,382.724 187.500 C 382.835 186.162,382.967 186.000,383.944 186.000 C 385.387 186.000,386.000 185.328,386.000 183.748 C 386.000 182.712,386.179 182.430,386.900 182.328 C 388.315 182.127,389.199 179.891,389.199 176.508 C 389.200 173.684,389.226 173.609,390.300 173.346 C 391.957 172.940,391.987 172.782,391.994 164.474 C 392.000 156.343,391.832 155.445,390.228 155.043 C 389.302 154.810,389.227 154.602,389.117 151.939 C 389.022 149.625,388.855 149.000,388.235 148.642 C 386.635 147.718,386.000 146.789,386.000 145.374 C 386.000 143.305,385.387 142.400,383.986 142.400 C 382.904 142.400,382.800 142.281,382.800 141.043 C 382.800 139.620,382.302 139.200,380.617 139.200 C 379.917 139.200,379.643 138.915,379.459 137.993 C 379.177 136.583,377.999 136.000,375.432 136.000 C 373.843 136.000,373.688 135.905,373.347 134.716 C 372.858 133.010,372.283 132.888,364.500 132.840 L 358.000 132.800 358.000 131.849 C 358.000 129.948,357.336 129.810,347.479 129.661 L 338.280 129.522 336.943 128.223 L 335.605 126.924 330.139 126.662 C 327.133 126.518,322.908 126.400,320.751 126.400 C 317.236 126.400,316.784 126.317,316.400 125.599 C 315.483 123.886,313.701 123.600,303.951 123.600 C 295.323 123.600,294.800 123.558,294.800 122.862 C 294.800 120.805,293.849 120.609,283.204 120.475 L 273.290 120.350 273.053 119.167 C 272.870 118.249,272.546 117.929,271.608 117.742 C 270.553 117.531,270.400 117.330,270.400 116.164 C 270.400 114.752,269.581 114.000,268.044 114.000 C 267.317 114.000,267.223 113.705,267.118 111.100 L 267.000 108.200 265.516 108.077 L 264.033 107.954 263.916 104.877 L 263.800 101.800 262.300 101.676 L 260.800 101.552 260.800 98.619 C 260.800 95.550,260.592 95.200,258.767 95.200 C 258.084 95.200,258.000 94.893,258.000 92.387 C 258.000 90.070,257.877 89.531,257.300 89.328 C 255.573 88.718,254.800 87.516,254.796 85.430 C 254.792 83.567,254.662 83.285,253.200 82.000 C 251.839 80.803,251.607 80.365,251.604 78.981 C 251.601 77.638,251.326 77.076,250.000 75.696 C 248.613 74.253,248.400 73.789,248.400 72.215 C 248.400 71.217,248.220 70.400,248.000 70.400 C 247.780 70.400,247.600 70.122,247.600 69.781 C 247.600 69.441,247.061 68.856,246.403 68.481 C 245.387 67.904,245.204 67.557,245.201 66.200 C 245.196 64.352,244.028 62.190,242.828 61.809 C 242.211 61.613,242.000 61.209,242.000 60.223 C 242.000 57.684,241.515 56.314,240.387 55.667 C 239.470 55.140,239.260 54.695,239.072 52.879 C 238.845 50.678,238.088 49.409,236.747 48.983 C 236.225 48.817,235.999 48.364,235.998 47.473 C 235.993 44.971,235.268 43.302,233.991 42.857 C 232.908 42.479,232.800 42.278,232.800 40.647 C 232.800 38.002,232.229 36.826,230.807 36.541 C 229.699 36.320,229.600 36.165,229.599 34.650 C 229.597 32.661,228.336 30.400,227.229 30.400 C 226.594 30.400,226.423 30.079,226.323 28.700 C 226.208 27.104,226.120 26.992,224.900 26.875 C 223.781 26.767,223.600 26.597,223.600 25.655 C 223.600 24.255,222.934 23.600,221.510 23.600 C 220.572 23.600,220.339 23.394,220.137 22.386 C 219.826 20.829,218.981 20.400,216.226 20.400 C 214.015 20.400,214.000 20.392,214.000 19.190 C 214.000 18.259,213.763 17.890,212.974 17.590 C 211.893 17.179,188.258 17.089,187.200 17.492 M208.600 30.525 C 213.581 33.097,217.703 37.213,218.833 40.743 C 219.089 41.544,219.737 42.786,220.272 43.503 C 220.807 44.219,221.598 45.831,222.029 47.084 C 222.460 48.337,223.168 49.740,223.602 50.202 C 224.036 50.664,224.650 51.905,224.968 52.960 C 225.285 54.015,225.996 55.535,226.548 56.339 C 227.100 57.143,227.929 58.819,228.391 60.064 C 228.852 61.309,229.487 62.540,229.800 62.800 C 230.113 63.060,230.745 64.275,231.203 65.500 C 231.662 66.726,232.396 68.232,232.835 68.849 C 233.273 69.465,233.988 71.002,234.423 72.265 C 234.857 73.528,235.567 74.939,236.000 75.400 C 236.433 75.861,237.153 77.301,237.600 78.600 C 238.047 79.899,238.767 81.339,239.200 81.800 C 239.633 82.261,240.352 83.697,240.797 84.991 C 241.242 86.285,241.858 87.627,242.165 87.972 C 242.473 88.317,243.191 89.756,243.762 91.168 C 244.332 92.581,245.072 94.037,245.405 94.405 C 245.738 94.773,246.429 96.138,246.942 97.437 C 247.454 98.737,248.352 100.500,248.937 101.356 C 249.522 102.212,250.000 103.316,250.000 103.811 C 250.000 104.306,250.600 105.585,251.332 106.655 C 252.065 107.725,252.966 109.489,253.334 110.576 C 253.702 111.663,254.338 112.923,254.748 113.376 C 255.158 113.829,255.822 115.100,256.225 116.200 C 256.627 117.300,257.357 118.830,257.847 119.600 C 258.336 120.370,258.956 121.754,259.224 122.675 C 260.846 128.245,264.619 130.510,273.725 131.375 C 277.314 131.716,281.949 132.347,284.025 132.776 C 287.816 133.561,290.918 133.982,298.910 134.798 C 301.280 135.040,304.606 135.592,306.301 136.026 C 307.996 136.459,311.007 136.986,312.992 137.195 C 314.976 137.405,318.395 137.768,320.589 138.002 C 322.783 138.237,325.933 138.774,327.589 139.196 C 330.519 139.942,332.875 140.262,342.400 141.210 C 344.930 141.462,347.900 141.909,349.000 142.203 C 351.203 142.793,355.482 143.434,359.800 143.820 C 363.394 144.141,365.547 144.672,366.800 145.547 C 367.350 145.930,368.430 146.493,369.200 146.797 C 370.903 147.471,374.397 150.493,375.148 151.943 C 375.449 152.524,376.119 153.455,376.638 154.012 C 379.926 157.541,379.790 171.200,376.428 175.029 C 375.753 175.798,375.200 176.588,375.200 176.784 C 375.200 177.128,373.112 179.304,368.172 184.107 C 366.868 185.376,365.620 186.594,365.400 186.814 C 365.180 187.034,361.940 190.176,358.200 193.795 C 354.460 197.415,351.130 200.648,350.800 200.981 C 349.328 202.466,344.449 207.261,335.925 215.600 C 300.817 249.945,303.272 247.448,302.767 249.322 C 302.219 251.358,303.270 261.798,304.487 266.400 C 305.651 270.802,305.906 272.215,306.402 277.040 C 306.649 279.438,307.178 282.660,307.579 284.200 C 308.498 287.732,308.649 288.634,309.386 295.000 C 309.717 297.860,310.434 301.915,310.979 304.011 C 311.525 306.107,312.254 310.240,312.600 313.196 C 313.294 319.142,313.367 319.534,314.416 323.059 C 314.819 324.412,315.439 328.102,315.794 331.259 C 316.490 337.460,316.730 338.822,317.826 342.800 C 318.827 346.430,318.899 356.058,317.939 357.800 C 317.575 358.460,316.801 359.990,316.219 361.200 C 312.319 369.311,297.369 374.862,291.332 370.442 C 290.709 369.987,289.210 369.276,288.000 368.863 C 286.790 368.450,285.116 367.648,284.280 367.080 C 283.445 366.513,282.095 365.836,281.280 365.575 C 280.466 365.315,279.440 364.779,279.000 364.384 C 278.560 363.990,277.156 363.208,275.880 362.646 C 274.603 362.085,273.123 361.283,272.590 360.864 C 272.057 360.445,270.581 359.681,269.311 359.167 C 268.040 358.654,266.661 357.920,266.246 357.536 C 265.831 357.153,264.982 356.728,264.359 356.591 C 263.736 356.454,262.546 355.877,261.713 355.307 C 260.881 354.738,259.108 353.774,257.773 353.165 C 256.439 352.557,255.110 351.773,254.821 351.425 C 254.532 351.077,253.351 350.517,252.197 350.182 C 251.043 349.846,249.782 349.222,249.395 348.794 C 249.008 348.367,247.709 347.649,246.508 347.200 C 245.307 346.750,243.744 345.940,243.035 345.399 C 242.325 344.858,240.953 344.136,239.984 343.794 C 239.015 343.453,237.858 342.846,237.411 342.447 C 236.965 342.048,235.790 341.414,234.800 341.038 C 233.810 340.662,232.279 339.845,231.398 339.223 C 230.517 338.600,229.025 337.860,228.083 337.578 C 227.141 337.295,225.907 336.635,225.341 336.110 C 224.774 335.585,223.356 334.798,222.188 334.361 C 221.021 333.925,219.627 333.222,219.090 332.799 C 218.553 332.377,217.122 331.660,215.911 331.207 C 214.700 330.754,213.393 330.034,213.007 329.608 C 212.622 329.182,211.472 328.555,210.453 328.215 C 209.388 327.859,207.707 326.773,206.500 325.660 L 204.400 323.725 204.400 304.872 L 204.400 286.018 205.393 285.368 C 205.938 285.010,208.143 284.465,210.293 284.157 C 212.442 283.848,215.280 283.246,216.600 282.819 C 217.920 282.392,220.215 281.765,221.700 281.427 C 223.185 281.088,225.075 280.378,225.900 279.848 C 226.725 279.319,228.351 278.580,229.512 278.206 C 230.674 277.833,232.146 277.089,232.782 276.553 C 233.419 276.018,234.539 275.379,235.270 275.134 C 236.002 274.889,237.007 274.321,237.504 273.871 C 238.002 273.421,239.018 272.681,239.763 272.226 C 241.643 271.079,247.784 266.126,249.128 264.673 C 249.498 264.273,250.340 263.373,251.000 262.673 C 253.591 259.923,257.609 254.494,259.047 251.800 C 259.633 250.700,260.540 249.240,261.062 248.555 C 261.584 247.870,262.309 246.430,262.672 245.355 C 263.036 244.280,263.742 242.770,264.242 242.000 C 264.741 241.230,265.531 239.070,265.997 237.200 C 266.462 235.330,267.188 232.863,267.610 231.717 C 269.778 225.823,269.657 204.937,267.417 198.527 C 266.892 197.023,266.171 194.535,265.815 192.997 C 265.459 191.459,264.744 189.570,264.227 188.800 C 263.710 188.030,262.988 186.469,262.622 185.331 C 262.256 184.193,261.681 183.033,261.345 182.755 C 261.010 182.476,260.207 181.202,259.561 179.923 C 256.011 172.889,246.604 162.894,239.000 158.074 C 237.240 156.959,235.260 155.682,234.600 155.236 C 233.940 154.791,232.770 154.131,232.000 153.770 C 231.230 153.409,229.160 152.410,227.400 151.550 C 225.640 150.690,223.690 149.990,223.067 149.993 C 222.443 149.997,220.560 149.450,218.882 148.778 C 211.608 145.865,188.604 145.751,182.172 148.596 C 180.935 149.143,178.768 149.791,177.355 150.037 C 175.886 150.293,174.149 150.918,173.294 151.498 C 172.472 152.056,170.838 152.843,169.663 153.247 C 168.487 153.652,166.906 154.526,166.149 155.191 C 165.392 155.856,164.566 156.400,164.314 156.400 C 163.603 156.400,158.823 159.566,156.600 161.510 C 149.011 168.144,142.684 175.530,140.645 180.134 C 140.141 181.270,139.440 182.439,139.087 182.731 C 138.733 183.023,138.136 184.193,137.759 185.331 C 137.382 186.469,136.661 188.030,136.156 188.800 C 135.652 189.570,134.778 192.000,134.214 194.200 C 133.650 196.400,132.929 198.857,132.613 199.661 C 130.521 204.974,130.769 226.089,132.999 232.472 C 133.512 233.941,134.147 236.191,134.409 237.472 C 134.672 238.752,135.476 240.880,136.196 242.200 C 136.916 243.520,137.614 245.071,137.747 245.647 C 137.880 246.222,138.581 247.572,139.306 248.647 C 140.031 249.721,140.832 251.079,141.086 251.664 C 141.991 253.741,147.232 260.495,151.052 264.505 C 152.450 265.973,154.509 267.734,156.000 268.735 C 156.770 269.253,157.811 270.107,158.313 270.634 C 158.815 271.161,159.805 271.885,160.513 272.242 C 161.221 272.599,162.250 273.298,162.800 273.794 C 163.350 274.291,164.265 274.806,164.834 274.939 C 165.402 275.073,166.556 275.729,167.398 276.399 C 168.240 277.068,169.877 277.891,171.036 278.228 C 172.195 278.565,173.620 279.215,174.202 279.673 C 175.571 280.750,186.718 283.714,191.226 284.199 C 192.451 284.331,194.026 284.788,194.726 285.214 L 196.000 285.988 196.000 304.856 L 196.000 323.725 193.900 325.663 C 192.745 326.729,190.990 327.901,190.000 328.267 C 189.010 328.634,187.840 329.248,187.400 329.633 C 186.960 330.018,185.556 330.792,184.281 331.353 C 183.005 331.914,181.475 332.719,180.881 333.141 C 180.286 333.564,179.028 334.140,178.085 334.423 C 177.142 334.705,175.914 335.359,175.355 335.877 C 174.796 336.395,173.238 337.266,171.891 337.813 C 170.545 338.360,169.074 339.142,168.622 339.550 C 168.170 339.959,166.900 340.617,165.800 341.013 C 164.700 341.409,163.435 342.057,162.989 342.453 C 162.542 342.849,161.385 343.453,160.416 343.794 C 159.447 344.136,158.079 344.855,157.375 345.392 C 156.671 345.929,155.308 346.673,154.347 347.045 C 153.386 347.416,152.004 348.161,151.276 348.699 C 150.547 349.238,149.377 349.836,148.676 350.030 C 147.974 350.224,146.416 351.016,145.213 351.791 C 144.011 352.566,142.852 353.200,142.638 353.200 C 142.423 353.200,141.067 353.902,139.624 354.761 C 138.181 355.620,136.550 356.450,136.000 356.607 C 135.450 356.764,134.460 357.289,133.800 357.773 C 133.140 358.256,131.562 359.068,130.293 359.575 C 129.024 360.083,127.876 360.677,127.741 360.896 C 127.606 361.114,126.210 361.879,124.640 362.595 C 123.069 363.310,121.549 364.179,121.261 364.526 C 120.974 364.873,119.880 365.441,118.831 365.790 C 117.782 366.138,116.328 366.863,115.600 367.400 C 114.872 367.937,113.359 368.677,112.238 369.045 C 111.117 369.412,109.697 370.065,109.081 370.497 C 102.748 374.937,87.355 369.379,83.976 361.433 C 83.501 360.315,82.860 359.114,82.553 358.765 C 81.128 357.147,81.047 346.603,82.425 341.962 C 83.118 339.626,83.947 334.774,84.401 330.400 C 84.640 328.090,85.260 324.580,85.779 322.600 C 86.914 318.264,87.075 317.345,87.601 312.200 C 87.826 310.000,88.536 306.040,89.178 303.400 C 89.820 300.760,90.457 297.430,90.595 296.000 C 91.098 290.745,91.699 286.937,92.424 284.400 C 92.832 282.970,93.451 279.231,93.799 276.092 C 94.147 272.952,94.774 269.262,95.193 267.892 C 96.536 263.502,97.865 252.758,97.426 249.834 C 97.142 247.939,97.740 248.584,81.349 232.500 C 59.907 211.458,51.245 203.057,50.650 202.724 C 50.293 202.524,50.000 202.103,50.000 201.789 C 50.000 201.475,49.511 200.899,48.914 200.509 C 48.317 200.119,44.363 196.380,40.128 192.200 C 35.893 188.020,30.712 182.921,28.614 180.870 C 26.516 178.818,24.800 176.952,24.800 176.722 C 24.800 176.493,24.278 175.711,23.639 174.983 C 20.133 170.990,20.114 157.709,23.610 153.727 C 24.265 152.982,24.800 152.148,24.800 151.875 C 24.800 149.112,34.534 144.204,41.200 143.606 C 43.950 143.359,47.640 142.826,49.400 142.420 C 51.160 142.015,54.580 141.473,57.000 141.215 C 59.420 140.958,63.020 140.571,65.000 140.355 C 66.980 140.140,70.490 139.534,72.800 139.008 C 75.110 138.483,79.970 137.775,83.600 137.433 C 87.230 137.092,90.830 136.629,91.600 136.404 C 94.575 135.535,98.799 134.830,103.600 134.401 C 109.000 133.919,114.982 133.042,117.159 132.414 C 117.907 132.198,121.507 131.740,125.159 131.395 C 135.941 130.377,138.589 128.840,140.994 122.200 C 141.393 121.100,142.044 119.734,142.441 119.164 C 142.838 118.594,143.538 117.126,143.997 115.900 C 144.455 114.675,145.083 113.463,145.391 113.207 C 145.700 112.951,146.421 111.516,146.993 110.017 C 147.566 108.519,148.383 106.977,148.809 106.591 C 149.236 106.206,149.702 105.240,149.845 104.445 C 150.155 102.726,150.637 101.690,151.644 100.581 C 152.053 100.130,152.740 98.737,153.171 97.484 C 153.602 96.231,154.393 94.619,154.928 93.903 C 155.463 93.186,156.130 91.880,156.410 91.000 C 156.690 90.120,157.346 88.770,157.868 88.000 C 158.390 87.230,159.012 85.880,159.250 85.000 C 159.487 84.120,160.199 82.696,160.830 81.836 C 161.462 80.976,162.280 79.356,162.648 78.236 C 163.016 77.116,163.726 75.710,164.224 75.110 C 164.723 74.511,165.348 73.341,165.613 72.510 C 165.878 71.680,166.613 70.079,167.247 68.953 C 167.880 67.827,168.662 66.159,168.984 65.247 C 169.306 64.334,169.996 63.005,170.518 62.294 C 171.039 61.582,171.676 60.260,171.932 59.356 C 172.189 58.452,172.915 57.062,173.546 56.268 C 174.178 55.473,174.808 54.112,174.947 53.243 C 175.086 52.373,175.655 51.121,176.212 50.459 C 176.768 49.798,177.581 48.217,178.018 46.947 C 178.455 45.677,179.177 44.250,179.623 43.775 C 180.069 43.300,180.784 41.993,181.211 40.869 C 182.140 38.424,185.114 34.396,186.562 33.621 C 187.133 33.315,187.600 32.905,187.600 32.710 C 187.600 32.515,188.545 31.919,189.700 31.384 C 190.855 30.849,192.610 29.949,193.600 29.383 C 195.313 28.404,195.632 28.361,200.200 28.510 L 205.000 28.666 208.600 30.525 M210.000 156.243 C 214.834 156.808,217.356 157.356,218.209 158.025 C 218.434 158.202,219.950 158.716,221.578 159.167 C 223.207 159.618,225.183 160.423,225.970 160.955 C 226.756 161.487,228.435 162.403,229.700 162.990 C 230.965 163.577,232.000 164.196,232.000 164.365 C 232.000 164.535,232.945 165.184,234.100 165.808 C 237.130 167.446,244.000 173.394,244.000 174.380 C 244.000 174.536,244.451 174.906,245.002 175.201 C 245.554 175.496,246.461 176.517,247.019 177.469 C 247.577 178.421,248.203 179.200,248.410 179.200 C 248.617 179.200,249.232 180.080,249.778 181.156 C 250.323 182.231,251.049 183.392,251.391 183.734 C 252.433 184.775,256.234 192.470,256.759 194.600 C 257.030 195.700,257.481 196.960,257.760 197.400 C 259.313 199.843,260.089 207.648,258.969 209.545 L 258.228 210.800 242.549 210.800 L 226.871 210.800 225.836 209.569 C 225.266 208.892,224.800 207.941,224.800 207.456 C 224.800 206.970,224.170 205.595,223.400 204.400 C 222.630 203.205,222.000 202.000,222.000 201.722 C 222.000 201.062,214.549 193.600,213.891 193.600 C 213.613 193.600,212.759 193.179,211.993 192.665 C 207.013 189.322,192.763 189.302,188.200 192.632 C 187.540 193.113,186.622 193.622,186.161 193.761 C 185.204 194.051,178.000 201.395,178.000 202.080 C 178.000 202.328,177.476 203.356,176.836 204.365 C 176.195 205.374,175.443 206.977,175.164 207.927 C 174.292 210.897,174.889 210.800,157.505 210.800 L 141.988 210.800 141.186 209.500 C 140.541 208.454,140.428 207.770,140.609 206.000 C 141.017 202.000,141.683 198.612,142.236 197.728 C 142.536 197.249,143.126 195.629,143.547 194.128 C 143.969 192.628,144.963 190.331,145.757 189.024 C 146.550 187.716,147.200 186.418,147.200 186.137 C 147.200 185.857,147.715 185.037,148.345 184.314 C 148.974 183.591,149.809 182.370,150.199 181.600 C 151.983 178.082,161.978 168.051,165.495 166.249 C 166.207 165.884,167.401 165.048,168.149 164.391 C 168.898 163.734,170.253 162.934,171.161 162.614 C 172.070 162.293,173.395 161.595,174.106 161.061 C 174.818 160.528,176.480 159.784,177.800 159.407 C 179.120 159.031,181.199 158.303,182.419 157.790 C 183.965 157.141,186.392 156.668,190.419 156.233 C 193.599 155.889,196.740 155.536,197.400 155.448 C 199.039 155.229,204.005 155.542,210.000 156.243 M204.312 199.577 C 208.418 200.424,209.302 200.960,213.220 204.981 C 219.091 211.006,218.383 222.017,211.739 228.000 C 208.207 231.180,208.111 231.231,204.062 232.084 L 200.069 232.925 196.003 232.078 C 192.256 231.298,191.813 231.104,190.369 229.615 C 189.506 228.727,188.625 228.000,188.411 228.000 C 188.196 228.000,187.724 227.415,187.363 226.700 C 187.001 225.985,186.286 225.040,185.774 224.600 C 183.209 222.394,182.767 211.918,185.052 207.499 C 186.470 204.757,191.544 200.467,193.936 199.989 C 195.181 199.740,196.740 199.387,197.400 199.204 C 199.250 198.692,200.303 198.749,204.312 199.577 M174.159 220.600 C 174.485 221.040,174.868 222.073,175.010 222.895 C 175.152 223.717,175.729 225.067,176.291 225.895 C 176.853 226.723,177.629 228.120,178.016 229.000 C 178.737 230.643,185.604 238.000,186.416 238.000 C 186.665 238.000,187.619 238.535,188.535 239.188 C 192.762 242.204,205.444 242.724,210.220 240.076 C 213.605 238.200,214.468 237.534,217.800 234.228 C 219.915 232.130,221.821 229.819,222.421 228.628 C 222.982 227.513,223.734 226.060,224.091 225.400 C 224.448 224.740,224.963 223.432,225.236 222.494 C 226.052 219.688,225.281 219.812,242.674 219.683 L 258.426 219.565 259.061 221.083 C 260.033 223.403,259.218 231.109,257.759 233.400 C 257.479 233.840,256.898 235.476,256.468 237.036 C 255.699 239.827,254.870 241.600,254.336 241.600 C 254.187 241.600,253.757 242.545,253.382 243.700 C 253.007 244.855,252.376 246.160,251.980 246.600 C 251.583 247.040,250.751 248.331,250.130 249.469 C 247.832 253.677,241.832 260.227,237.400 263.367 C 232.413 266.900,229.353 268.819,228.031 269.241 C 227.244 269.493,226.002 270.146,225.271 270.692 C 224.541 271.238,222.877 271.933,221.574 272.237 C 220.271 272.541,218.349 273.224,217.303 273.755 C 212.168 276.360,187.834 276.350,182.928 273.741 C 181.954 273.224,179.926 272.520,178.420 272.177 C 176.877 271.826,175.379 271.219,174.987 270.786 C 174.604 270.363,173.281 269.639,172.046 269.178 C 170.811 268.716,169.468 268.040,169.063 267.674 C 168.658 267.309,167.556 266.557,166.615 266.005 C 160.802 262.591,151.678 253.395,149.874 249.131 C 149.564 248.399,148.933 247.464,148.472 247.053 C 148.010 246.642,147.329 245.382,146.958 244.253 C 146.586 243.124,145.859 241.691,145.341 241.069 C 144.823 240.447,144.292 239.457,144.160 238.869 C 143.450 235.708,143.058 234.486,142.406 233.400 C 140.849 230.806,140.162 222.434,141.356 220.611 L 142.041 219.565 157.804 219.683 C 173.031 219.796,173.586 219.827,174.159 220.600 " stroke="none" fill="#38363b" fill-rule="evenodd"></path><path id="path3" d="M193.600 29.383 C 192.610 29.949,190.855 30.849,189.700 31.384 C 188.545 31.919,187.600 32.515,187.600 32.710 C 187.600 32.905,187.133 33.315,186.562 33.621 C 185.114 34.396,182.140 38.424,181.211 40.869 C 180.784 41.993,180.069 43.300,179.623 43.775 C 179.177 44.250,178.455 45.677,178.018 46.947 C 177.581 48.217,176.768 49.798,176.212 50.459 C 175.655 51.121,175.086 52.373,174.947 53.243 C 174.808 54.112,174.178 55.473,173.546 56.268 C 172.915 57.062,172.189 58.452,171.932 59.356 C 171.676 60.260,171.039 61.582,170.518 62.294 C 169.996 63.005,169.306 64.334,168.984 65.247 C 168.662 66.159,167.880 67.827,167.247 68.953 C 166.613 70.079,165.878 71.680,165.613 72.510 C 165.348 73.341,164.723 74.511,164.224 75.110 C 163.726 75.710,163.016 77.116,162.648 78.236 C 162.280 79.356,161.462 80.976,160.830 81.836 C 160.199 82.696,159.487 84.120,159.250 85.000 C 159.012 85.880,158.390 87.230,157.868 88.000 C 157.346 88.770,156.690 90.120,156.410 91.000 C 156.130 91.880,155.463 93.186,154.928 93.903 C 154.393 94.619,153.602 96.231,153.171 97.484 C 152.740 98.737,152.053 100.130,151.644 100.581 C 150.637 101.690,150.155 102.726,149.845 104.445 C 149.702 105.240,149.236 106.206,148.809 106.591 C 148.383 106.977,147.566 108.519,146.993 110.017 C 146.421 111.516,145.700 112.951,145.391 113.207 C 145.083 113.463,144.455 114.675,143.997 115.900 C 143.538 117.126,142.838 118.594,142.441 119.164 C 142.044 119.734,141.393 121.100,140.994 122.200 C 138.589 128.840,135.941 130.377,125.159 131.395 C 121.507 131.740,117.907 132.198,117.159 132.414 C 114.982 133.042,109.000 133.919,103.600 134.401 C 98.799 134.830,94.575 135.535,91.600 136.404 C 90.830 136.629,87.230 137.092,83.600 137.433 C 79.970 137.775,75.110 138.483,72.800 139.008 C 70.490 139.534,66.980 140.140,65.000 140.355 C 63.020 140.571,59.420 140.958,57.000 141.215 C 54.580 141.473,51.160 142.015,49.400 142.420 C 47.640 142.826,43.950 143.359,41.200 143.606 C 34.534 144.204,24.800 149.112,24.800 151.875 C 24.800 152.148,24.265 152.982,23.610 153.727 C 20.114 157.709,20.133 170.990,23.639 174.983 C 24.278 175.711,24.800 176.493,24.800 176.722 C 24.800 176.952,26.516 178.818,28.614 180.870 C 30.712 182.921,35.893 188.020,40.128 192.200 C 44.363 196.380,48.317 200.119,48.914 200.509 C 49.511 200.899,50.000 201.475,50.000 201.789 C 50.000 202.103,50.293 202.524,50.650 202.724 C 51.245 203.057,59.907 211.458,81.349 232.500 C 97.740 248.584,97.142 247.939,97.426 249.834 C 97.865 252.758,96.536 263.502,95.193 267.892 C 94.774 269.262,94.147 272.952,93.799 276.092 C 93.451 279.231,92.832 282.970,92.424 284.400 C 91.699 286.937,91.098 290.745,90.595 296.000 C 90.457 297.430,89.820 300.760,89.178 303.400 C 88.536 306.040,87.826 310.000,87.601 312.200 C 87.075 317.345,86.914 318.264,85.779 322.600 C 85.260 324.580,84.640 328.090,84.401 330.400 C 83.947 334.774,83.118 339.626,82.425 341.962 C 81.047 346.603,81.128 357.147,82.553 358.765 C 82.860 359.114,83.501 360.315,83.976 361.433 C 87.355 369.379,102.748 374.937,109.081 370.497 C 109.697 370.065,111.117 369.412,112.238 369.045 C 113.359 368.677,114.872 367.937,115.600 367.400 C 116.328 366.863,117.782 366.138,118.831 365.790 C 119.880 365.441,120.974 364.873,121.261 364.526 C 121.549 364.179,123.069 363.310,124.640 362.595 C 126.210 361.879,127.606 361.114,127.741 360.896 C 127.876 360.677,129.024 360.083,130.293 359.575 C 131.562 359.068,133.140 358.256,133.800 357.773 C 134.460 357.289,135.450 356.764,136.000 356.607 C 136.550 356.450,138.181 355.620,139.624 354.761 C 141.067 353.902,142.423 353.200,142.638 353.200 C 142.852 353.200,144.011 352.566,145.213 351.791 C 146.416 351.016,147.974 350.224,148.676 350.030 C 149.377 349.836,150.547 349.238,151.276 348.699 C 152.004 348.161,153.386 347.416,154.347 347.045 C 155.308 346.673,156.671 345.929,157.375 345.392 C 158.079 344.855,159.447 344.136,160.416 343.794 C 161.385 343.453,162.542 342.849,162.989 342.453 C 163.435 342.057,164.700 341.409,165.800 341.013 C 166.900 340.617,168.170 339.959,168.622 339.550 C 169.074 339.142,170.545 338.360,171.891 337.813 C 173.238 337.266,174.796 336.395,175.355 335.877 C 175.914 335.359,177.142 334.705,178.085 334.423 C 179.028 334.140,180.286 333.564,180.881 333.141 C 181.475 332.719,183.005 331.914,184.281 331.353 C 185.556 330.792,186.960 330.018,187.400 329.633 C 187.840 329.248,189.010 328.634,190.000 328.267 C 190.990 327.901,192.745 326.729,193.900 325.663 L 196.000 323.725 196.000 304.856 L 196.000 285.988 194.726 285.214 C 194.026 284.788,192.451 284.331,191.226 284.199 C 186.718 283.714,175.571 280.750,174.202 279.673 C 173.620 279.215,172.195 278.565,171.036 278.228 C 169.877 277.891,168.240 277.068,167.398 276.399 C 166.556 275.729,165.402 275.073,164.834 274.939 C 164.265 274.806,163.350 274.291,162.800 273.794 C 162.250 273.298,161.221 272.599,160.513 272.242 C 159.805 271.885,158.815 271.161,158.313 270.634 C 157.811 270.107,156.770 269.253,156.000 268.735 C 154.509 267.734,152.450 265.973,151.052 264.505 C 147.232 260.495,141.991 253.741,141.086 251.664 C 140.832 251.079,140.031 249.721,139.306 248.647 C 138.581 247.572,137.880 246.222,137.747 245.647 C 137.614 245.071,136.916 243.520,136.196 242.200 C 135.476 240.880,134.672 238.752,134.409 237.472 C 134.147 236.191,133.512 233.941,132.999 232.472 C 130.769 226.089,130.521 204.974,132.613 199.661 C 132.929 198.857,133.650 196.400,134.214 194.200 C 134.778 192.000,135.652 189.570,136.156 188.800 C 136.661 188.030,137.382 186.469,137.759 185.331 C 138.136 184.193,138.733 183.023,139.087 182.731 C 139.440 182.439,140.141 181.270,140.645 180.134 C 142.684 175.530,149.011 168.144,156.600 161.510 C 158.823 159.566,163.603 156.400,164.314 156.400 C 164.566 156.400,165.392 155.856,166.149 155.191 C 166.906 154.526,168.487 153.652,169.663 153.247 C 170.838 152.843,172.472 152.056,173.294 151.498 C 174.149 150.918,175.886 150.293,177.355 150.037 C 178.768 149.791,180.935 149.143,182.172 148.596 C 188.604 145.751,211.608 145.865,218.882 148.778 C 220.560 149.450,222.443 149.997,223.067 149.993 C 223.690 149.990,225.640 150.690,227.400 151.550 C 229.160 152.410,231.230 153.409,232.000 153.770 C 232.770 154.131,233.940 154.791,234.600 155.236 C 235.260 155.682,237.240 156.959,239.000 158.074 C 246.604 162.894,256.011 172.889,259.561 179.923 C 260.207 181.202,261.010 182.476,261.345 182.755 C 261.681 183.033,262.256 184.193,262.622 185.331 C 262.988 186.469,263.710 188.030,264.227 188.800 C 264.744 189.570,265.459 191.459,265.815 192.997 C 266.171 194.535,266.892 197.023,267.417 198.527 C 269.657 204.937,269.778 225.823,267.610 231.717 C 267.188 232.863,266.462 235.330,265.997 237.200 C 265.531 239.070,264.741 241.230,264.242 242.000 C 263.742 242.770,263.036 244.280,262.672 245.355 C 262.309 246.430,261.584 247.870,261.062 248.555 C 260.540 249.240,259.633 250.700,259.047 251.800 C 257.609 254.494,253.591 259.923,251.000 262.673 C 250.340 263.373,249.498 264.273,249.128 264.673 C 247.784 266.126,241.643 271.079,239.763 272.226 C 239.018 272.681,238.002 273.421,237.504 273.871 C 237.007 274.321,236.002 274.889,235.270 275.134 C 234.539 275.379,233.419 276.018,232.782 276.553 C 232.146 277.089,230.674 277.833,229.512 278.206 C 228.351 278.580,226.725 279.319,225.900 279.848 C 225.075 280.378,223.185 281.088,221.700 281.427 C 220.215 281.765,217.920 282.392,216.600 282.819 C 215.280 283.246,212.442 283.848,210.293 284.157 C 208.143 284.465,205.938 285.010,205.393 285.368 L 204.400 286.018 204.400 304.872 L 204.400 323.725 206.500 325.660 C 207.707 326.773,209.388 327.859,210.453 328.215 C 211.472 328.555,212.622 329.182,213.007 329.608 C 213.393 330.034,214.700 330.754,215.911 331.207 C 217.122 331.660,218.553 332.377,219.090 332.799 C 219.627 333.222,221.021 333.925,222.188 334.361 C 223.356 334.798,224.774 335.585,225.341 336.110 C 225.907 336.635,227.141 337.295,228.083 337.578 C 229.025 337.860,230.517 338.600,231.398 339.223 C 232.279 339.845,233.810 340.662,234.800 341.038 C 235.790 341.414,236.965 342.048,237.411 342.447 C 237.858 342.846,239.015 343.453,239.984 343.794 C 240.953 344.136,242.325 344.858,243.035 345.399 C 243.744 345.940,245.307 346.750,246.508 347.200 C 247.709 347.649,249.008 348.367,249.395 348.794 C 249.782 349.222,251.043 349.846,252.197 350.182 C 253.351 350.517,254.532 351.077,254.821 351.425 C 255.110 351.773,256.439 352.557,257.773 353.165 C 259.108 353.774,260.881 354.738,261.713 355.307 C 262.546 355.877,263.736 356.454,264.359 356.591 C 264.982 356.728,265.831 357.153,266.246 357.536 C 266.661 357.920,268.040 358.654,269.311 359.167 C 270.581 359.681,272.057 360.445,272.590 360.864 C 273.123 361.283,274.603 362.085,275.880 362.646 C 277.156 363.208,278.560 363.990,279.000 364.384 C 279.440 364.779,280.466 365.315,281.280 365.575 C 282.095 365.836,283.445 366.513,284.280 367.080 C 285.116 367.648,286.790 368.450,288.000 368.863 C 289.210 369.276,290.709 369.987,291.332 370.442 C 297.369 374.862,312.319 369.311,316.219 361.200 C 316.801 359.990,317.575 358.460,317.939 357.800 C 318.899 356.058,318.827 346.430,317.826 342.800 C 316.730 338.822,316.490 337.460,315.794 331.259 C 315.439 328.102,314.819 324.412,314.416 323.059 C 313.367 319.534,313.294 319.142,312.600 313.196 C 312.254 310.240,311.525 306.107,310.979 304.011 C 310.434 301.915,309.717 297.860,309.386 295.000 C 308.649 288.634,308.498 287.732,307.579 284.200 C 307.178 282.660,306.649 279.438,306.402 277.040 C 305.906 272.215,305.651 270.802,304.487 266.400 C 303.270 261.798,302.219 251.358,302.767 249.322 C 303.231 247.599,303.408 247.413,320.388 230.800 C 323.873 227.390,330.865 220.550,335.925 215.600 C 344.449 207.261,349.328 202.466,350.800 200.981 C 351.130 200.648,354.460 197.415,358.200 193.795 C 361.940 190.176,365.180 187.034,365.400 186.814 C 365.620 186.594,366.868 185.376,368.172 184.107 C 373.112 179.304,375.200 177.128,375.200 176.784 C 375.200 176.588,375.753 175.798,376.428 175.029 C 379.790 171.200,379.926 157.541,376.638 154.012 C 376.119 153.455,375.449 152.524,375.148 151.943 C 374.397 150.493,370.903 147.471,369.200 146.797 C 368.430 146.493,367.350 145.930,366.800 145.547 C 365.547 144.672,363.394 144.141,359.800 143.820 C 355.482 143.434,351.203 142.793,349.000 142.203 C 347.900 141.909,344.930 141.462,342.400 141.210 C 332.875 140.262,330.519 139.942,327.589 139.196 C 325.933 138.774,322.783 138.237,320.589 138.002 C 318.395 137.768,314.976 137.405,312.992 137.195 C 311.007 136.986,307.996 136.459,306.301 136.026 C 304.606 135.592,301.280 135.040,298.910 134.798 C 290.918 133.982,287.816 133.561,284.025 132.776 C 281.949 132.347,277.314 131.716,273.725 131.375 C 264.619 130.510,260.846 128.245,259.224 122.675 C 258.956 121.754,258.336 120.370,257.847 119.600 C 257.357 118.830,256.627 117.300,256.225 116.200 C 255.822 115.100,255.158 113.829,254.748 113.376 C 254.338 112.923,253.702 111.663,253.334 110.576 C 252.966 109.489,252.065 107.725,251.332 106.655 C 250.600 105.585,250.000 104.306,250.000 103.811 C 250.000 103.316,249.522 102.212,248.937 101.356 C 248.352 100.500,247.454 98.737,246.942 97.437 C 246.429 96.138,245.738 94.773,245.405 94.405 C 245.072 94.037,244.332 92.581,243.762 91.168 C 243.191 89.756,242.473 88.317,242.165 87.972 C 241.858 87.627,241.242 86.285,240.797 84.991 C 240.352 83.697,239.633 82.261,239.200 81.800 C 238.767 81.339,238.047 79.899,237.600 78.600 C 237.153 77.301,236.433 75.861,236.000 75.400 C 235.567 74.939,234.857 73.528,234.423 72.265 C 233.988 71.002,233.273 69.465,232.835 68.849 C 232.396 68.232,231.662 66.726,231.203 65.500 C 230.745 64.275,230.113 63.060,229.800 62.800 C 229.487 62.540,228.852 61.309,228.391 60.064 C 227.929 58.819,227.100 57.143,226.548 56.339 C 225.996 55.535,225.285 54.015,224.968 52.960 C 224.650 51.905,224.036 50.664,223.602 50.202 C 223.168 49.740,222.460 48.337,222.029 47.084 C 221.598 45.831,220.807 44.219,220.272 43.503 C 219.737 42.786,219.089 41.544,218.833 40.743 C 217.703 37.213,213.581 33.097,208.600 30.525 L 205.000 28.666 200.200 28.510 C 195.632 28.361,195.313 28.404,193.600 29.383 M199.517 31.406 C 200.416 34.765,200.194 142.268,199.288 142.753 C 198.896 142.963,197.244 143.319,195.617 143.544 C 193.888 143.784,192.228 144.272,191.623 144.720 C 190.798 145.330,189.567 145.546,185.593 145.782 C 180.367 146.092,178.474 146.590,177.552 147.900 C 177.162 148.456,176.298 148.772,174.600 148.983 C 172.014 149.304,171.073 149.670,169.756 150.867 C 169.291 151.289,168.036 151.852,166.966 152.117 C 165.587 152.460,164.880 152.883,164.537 153.573 C 164.202 154.248,163.401 154.743,161.927 155.187 C 160.344 155.664,159.595 156.153,159.000 157.098 C 158.551 157.812,157.849 158.379,157.400 158.391 C 156.273 158.421,155.711 158.857,155.256 160.052 C 154.989 160.756,154.463 161.167,153.614 161.337 C 152.671 161.526,152.220 161.932,151.777 162.994 C 151.454 163.767,150.981 164.400,150.726 164.400 C 150.025 164.400,148.801 165.641,148.791 166.362 C 148.787 166.713,148.202 167.270,147.491 167.600 C 146.619 168.005,146.076 168.622,145.817 169.500 C 145.587 170.282,145.173 170.800,144.779 170.800 C 143.941 170.800,142.976 171.909,142.663 173.231 C 142.529 173.799,141.969 174.468,141.418 174.719 C 140.668 175.061,140.240 175.779,139.709 177.587 C 139.319 178.913,138.803 179.999,138.562 179.999 C 137.729 180.001,136.822 181.446,136.337 183.544 C 136.036 184.848,135.561 185.807,135.091 186.058 C 134.037 186.622,133.200 188.823,133.200 191.030 C 133.200 192.527,133.009 193.035,132.210 193.664 C 130.872 194.716,130.491 196.436,130.182 202.800 C 129.973 207.122,129.749 208.559,129.062 210.000 C 127.843 212.558,127.830 218.295,129.039 220.600 C 129.719 221.897,129.931 223.260,130.160 227.800 C 130.474 234.044,130.932 236.131,132.209 237.136 C 132.899 237.678,133.121 238.386,133.299 240.604 C 133.500 243.100,133.652 243.498,134.761 244.424 C 135.713 245.218,136.106 245.992,136.465 247.781 C 136.858 249.741,137.132 250.223,138.216 250.863 C 139.219 251.454,139.558 251.979,139.762 253.253 C 139.928 254.293,140.458 255.320,141.224 256.086 C 141.885 256.747,142.678 257.891,142.987 258.629 C 143.348 259.494,143.913 260.063,144.573 260.229 C 145.294 260.410,145.694 260.861,145.917 261.743 C 146.134 262.600,146.627 263.175,147.467 263.550 C 148.158 263.859,148.941 264.650,149.250 265.350 C 149.592 266.127,150.143 266.649,150.707 266.729 C 151.301 266.813,151.812 267.333,152.189 268.235 C 152.611 269.244,153.082 269.676,153.952 269.850 C 154.743 270.009,155.290 270.451,155.590 271.176 C 155.865 271.839,156.658 272.537,157.620 272.961 C 158.489 273.344,159.200 273.807,159.200 273.989 C 159.200 274.516,161.845 275.935,163.355 276.218 C 164.329 276.401,164.798 276.738,164.957 277.370 C 165.220 278.418,166.617 279.135,169.041 279.468 C 170.258 279.635,170.851 279.931,171.018 280.457 C 171.367 281.558,173.047 282.263,176.075 282.579 C 177.745 282.753,178.948 283.096,179.275 283.491 C 180.313 284.742,182.584 285.304,187.600 285.553 L 192.600 285.800 192.704 304.858 L 192.808 323.916 191.404 324.745 C 190.632 325.200,190.000 325.849,190.000 326.187 C 190.000 326.524,189.673 326.800,189.273 326.800 C 187.429 326.800,184.352 328.069,183.925 329.004 C 183.591 329.738,182.981 330.072,181.358 330.409 C 179.821 330.728,178.953 331.178,178.240 332.025 C 177.608 332.777,176.872 333.200,176.200 333.200 C 174.895 333.200,173.753 333.771,172.200 335.200 C 171.540 335.808,170.304 336.428,169.452 336.579 C 168.500 336.748,167.380 337.364,166.542 338.178 C 165.683 339.011,164.613 339.592,163.649 339.746 C 162.781 339.885,161.532 340.511,160.760 341.196 C 159.981 341.886,158.726 342.514,157.821 342.664 C 156.777 342.838,155.829 343.368,155.021 344.227 C 154.162 345.142,153.284 345.610,152.058 345.806 C 150.288 346.089,148.800 347.157,148.800 348.144 C 148.800 348.496,148.122 348.769,146.881 348.916 C 144.453 349.203,142.881 349.914,142.581 350.860 C 142.452 351.266,141.864 351.697,141.273 351.817 C 138.001 352.485,137.185 352.868,136.592 354.015 C 136.132 354.904,135.697 355.200,134.849 355.200 C 132.931 355.200,131.208 356.024,130.578 357.243 C 130.095 358.176,129.715 358.400,128.616 358.400 C 126.655 358.400,125.257 359.037,124.743 360.166 C 124.414 360.888,123.860 361.220,122.648 361.421 C 120.552 361.769,118.939 362.593,118.407 363.587 C 118.164 364.040,117.366 364.479,116.495 364.636 C 114.650 364.970,113.202 365.695,112.354 366.710 C 111.943 367.202,110.930 367.586,109.565 367.767 C 108.386 367.923,106.138 368.586,104.569 369.239 L 101.717 370.426 99.611 369.368 C 98.452 368.786,96.246 368.115,94.708 367.877 C 92.466 367.530,91.834 367.272,91.517 366.578 C 91.300 366.101,90.510 365.419,89.761 365.062 C 89.012 364.705,88.400 364.149,88.400 363.827 C 88.400 363.504,87.808 362.789,87.083 362.236 C 86.023 361.427,85.672 360.776,85.282 358.884 C 84.962 357.334,84.458 356.218,83.798 355.599 C 82.569 354.443,82.277 348.532,83.404 347.597 C 84.502 346.686,85.213 343.020,85.559 336.494 C 85.858 330.841,86.004 329.921,86.749 328.974 C 88.040 327.333,88.404 325.386,88.766 318.174 C 89.057 312.394,89.200 311.448,89.900 310.680 C 91.182 309.272,91.514 307.428,91.787 300.200 C 92.033 293.707,92.088 293.354,93.021 292.379 C 94.254 291.091,94.668 288.752,95.015 281.115 C 95.223 276.520,95.418 275.117,95.903 274.715 C 97.218 273.625,97.680 271.419,98.096 264.237 C 98.448 258.173,98.626 256.938,99.224 256.418 C 100.938 254.927,100.954 248.764,99.247 247.487 C 98.889 247.219,98.237 246.309,97.798 245.464 C 97.359 244.619,96.550 243.692,96.000 243.403 C 95.450 243.114,94.590 242.320,94.088 241.639 C 93.586 240.958,92.942 240.400,92.656 240.400 C 92.369 240.400,91.917 239.995,91.650 239.500 C 91.384 239.005,89.897 237.430,88.346 236.000 C 86.795 234.570,83.593 231.510,81.231 229.200 C 72.014 220.185,65.980 214.400,65.794 214.400 C 65.451 214.400,64.147 212.960,63.895 212.304 C 63.761 211.954,63.146 211.426,62.529 211.130 C 61.912 210.835,61.180 210.119,60.902 209.539 C 60.625 208.960,59.971 208.379,59.449 208.248 C 58.889 208.107,58.290 207.500,57.984 206.761 C 57.673 206.011,57.022 205.357,56.354 205.124 C 55.742 204.911,54.882 204.126,54.442 203.381 C 54.002 202.636,53.218 201.919,52.700 201.789 C 52.144 201.650,51.575 201.070,51.312 200.373 C 50.993 199.526,50.519 199.124,49.634 198.947 C 48.681 198.756,48.400 198.489,48.400 197.773 C 48.400 196.802,47.069 195.600,45.994 195.600 C 45.630 195.600,45.204 195.052,44.983 194.300 C 44.696 193.327,44.277 192.905,43.315 192.621 C 42.383 192.347,41.963 191.942,41.789 191.152 C 41.626 190.409,41.169 189.928,40.359 189.646 C 39.590 189.377,39.022 188.809,38.753 188.036 C 38.461 187.198,37.927 186.706,36.968 186.389 C 36.172 186.127,35.600 185.672,35.600 185.300 C 35.600 184.443,34.431 183.200,33.626 183.200 C 33.268 183.200,32.770 182.655,32.519 181.990 C 32.227 181.217,31.628 180.629,30.860 180.361 C 30.076 180.088,29.512 179.524,29.239 178.740 C 28.980 177.996,28.385 177.374,27.676 177.106 C 26.813 176.780,26.425 176.273,26.093 175.037 C 25.852 174.137,25.102 172.783,24.427 172.028 L 23.200 170.656 23.200 164.200 C 23.200 157.830,23.213 157.733,24.190 156.884 C 25.232 155.977,26.400 153.599,26.400 152.383 C 26.400 151.917,26.802 151.575,27.544 151.412 C 28.173 151.274,29.225 150.554,29.881 149.812 C 30.820 148.752,31.557 148.375,33.328 148.047 C 35.789 147.592,37.780 146.709,38.280 145.851 C 38.522 145.438,40.661 145.197,47.000 144.871 C 55.822 144.417,57.596 144.116,58.964 142.838 C 59.712 142.139,60.622 142.030,67.600 141.803 C 76.399 141.515,78.756 141.171,80.524 139.912 C 81.639 139.118,82.436 139.009,88.978 138.758 C 97.967 138.414,99.651 138.163,101.514 136.891 C 102.923 135.929,103.390 135.860,110.544 135.557 C 118.762 135.210,121.853 134.743,123.276 133.632 C 124.027 133.045,125.322 132.857,130.200 132.625 C 136.614 132.319,137.720 131.989,138.411 130.172 C 138.617 129.629,139.228 129.017,139.769 128.812 C 141.015 128.338,141.437 127.522,141.791 124.900 C 141.962 123.637,142.274 122.800,142.576 122.800 C 143.513 122.800,144.398 121.342,144.862 119.032 C 145.218 117.262,145.541 116.628,146.251 116.304 C 147.188 115.877,147.741 114.640,148.227 111.889 C 148.385 110.992,148.813 110.207,149.280 109.957 C 150.231 109.448,151.200 107.268,151.200 105.640 C 151.200 104.782,151.528 104.221,152.390 103.607 C 153.503 102.815,153.953 101.813,154.583 98.727 C 154.703 98.136,155.145 97.545,155.564 97.412 C 156.404 97.145,157.600 94.547,157.600 92.986 C 157.600 92.387,158.080 91.552,158.802 90.894 C 159.688 90.087,160.110 89.225,160.409 87.610 C 160.682 86.132,161.124 85.156,161.769 84.610 C 162.927 83.628,163.407 82.684,163.770 80.674 C 163.941 79.727,164.498 78.740,165.237 78.074 C 166.113 77.283,166.509 76.473,166.740 75.000 C 166.965 73.561,167.397 72.658,168.278 71.779 C 169.098 70.962,169.601 69.970,169.801 68.779 C 169.996 67.613,170.554 66.494,171.420 65.531 C 172.320 64.531,172.828 63.486,173.012 62.257 C 173.185 61.106,173.701 59.983,174.435 59.161 C 175.649 57.801,175.778 57.501,176.182 55.105 C 176.332 54.219,176.752 53.440,177.213 53.193 C 178.193 52.668,179.017 51.053,179.327 49.050 C 179.466 48.144,179.907 47.260,180.385 46.925 C 181.427 46.196,182.400 44.328,182.400 43.058 C 182.400 42.518,183.031 41.320,183.803 40.397 C 184.574 39.473,185.319 38.241,185.458 37.659 C 185.796 36.240,186.347 35.600,187.229 35.600 C 187.630 35.600,188.433 34.979,189.012 34.220 C 189.859 33.110,190.431 32.788,191.932 32.575 C 194.173 32.259,196.793 31.181,197.549 30.265 C 198.450 29.174,199.006 29.496,199.517 31.406 M197.400 155.448 C 196.740 155.536,193.599 155.889,190.419 156.233 C 186.392 156.668,183.965 157.141,182.419 157.790 C 181.199 158.303,179.120 159.031,177.800 159.407 C 176.480 159.784,174.818 160.528,174.106 161.061 C 173.395 161.595,172.070 162.293,171.161 162.614 C 170.253 162.934,168.898 163.734,168.149 164.391 C 167.401 165.048,166.207 165.884,165.495 166.249 C 163.438 167.303,160.195 170.134,156.200 174.361 C 155.980 174.594,155.318 175.193,154.729 175.692 C 153.873 176.417,153.727 176.775,154.005 177.470 C 154.448 178.581,157.303 177.669,158.953 175.889 C 159.508 175.290,160.339 174.800,160.801 174.800 C 161.786 174.800,163.804 173.814,164.889 172.803 C 165.310 172.411,166.732 171.788,168.049 171.418 C 169.366 171.049,171.065 170.324,171.825 169.809 C 172.639 169.256,174.397 168.671,176.103 168.384 C 177.697 168.117,180.350 167.469,182.000 166.944 C 189.163 164.669,211.741 164.571,217.687 166.790 C 218.849 167.224,221.577 167.935,223.749 168.371 C 225.920 168.807,228.005 169.442,228.381 169.783 C 228.757 170.123,230.390 170.852,232.009 171.403 C 233.628 171.954,235.324 172.748,235.777 173.168 C 236.229 173.587,237.557 174.241,238.727 174.620 C 239.993 175.031,241.104 175.692,241.473 176.255 C 241.813 176.775,242.386 177.201,242.746 177.202 C 243.106 177.204,243.878 177.454,244.463 177.760 C 245.232 178.161,245.647 178.193,245.963 177.877 C 246.747 177.093,246.425 176.033,245.212 175.406 C 244.558 175.068,243.824 174.419,243.580 173.963 C 242.574 172.082,237.275 167.524,234.100 165.808 C 232.945 165.184,232.000 164.535,232.000 164.365 C 232.000 164.196,230.965 163.577,229.700 162.990 C 228.435 162.403,226.756 161.487,225.970 160.955 C 225.183 160.423,223.207 159.618,221.578 159.167 C 219.950 158.716,218.434 158.202,218.209 158.025 C 216.652 156.802,201.405 154.913,197.400 155.448 " stroke="none" fill="#faac04" fill-rule="evenodd"></path><path id="path4" d="M188.738 165.620 C 186.835 165.789,183.775 166.388,181.938 166.951 C 180.102 167.514,177.382 168.179,175.894 168.429 C 174.366 168.686,172.590 169.290,171.815 169.815 C 171.061 170.327,169.366 171.049,168.049 171.418 C 166.732 171.788,165.310 172.411,164.889 172.803 C 163.804 173.814,161.786 174.800,160.801 174.800 C 160.339 174.800,159.508 175.290,158.953 175.889 C 157.389 177.576,154.380 178.611,154.104 177.556 C 153.914 176.827,153.797 176.873,152.790 178.078 C 152.033 178.983,151.829 179.493,152.142 179.694 C 152.418 179.871,152.261 179.990,151.749 179.994 C 151.176 179.998,150.729 180.407,150.383 181.240 C 150.101 181.922,149.269 183.199,148.535 184.078 C 147.801 184.957,147.200 185.894,147.200 186.161 C 147.200 186.429,146.550 187.716,145.757 189.024 C 144.963 190.331,143.969 192.628,143.547 194.128 C 143.126 195.629,142.536 197.249,142.236 197.728 C 141.683 198.612,141.017 202.000,140.609 206.000 C 140.428 207.770,140.541 208.454,141.186 209.500 L 141.988 210.800 157.505 210.800 C 174.889 210.800,174.292 210.897,175.164 207.927 C 175.443 206.977,176.195 205.374,176.836 204.365 C 177.476 203.356,178.000 202.328,178.000 202.080 C 178.000 201.395,185.204 194.051,186.161 193.761 C 186.622 193.622,187.540 193.113,188.200 192.632 C 192.763 189.302,207.013 189.322,211.993 192.665 C 212.759 193.179,213.613 193.600,213.891 193.600 C 214.549 193.600,222.000 201.062,222.000 201.722 C 222.000 202.000,222.630 203.205,223.400 204.400 C 224.170 205.595,224.800 206.970,224.800 207.456 C 224.800 207.941,225.266 208.892,225.836 209.569 L 226.871 210.800 242.549 210.800 L 258.228 210.800 258.969 209.545 C 260.089 207.648,259.313 199.843,257.760 197.400 C 257.481 196.960,257.030 195.700,256.759 194.600 C 256.234 192.470,252.433 184.775,251.391 183.734 C 251.049 183.392,250.323 182.231,249.778 181.156 C 249.232 180.080,248.620 179.200,248.416 179.200 C 248.212 179.200,247.731 178.668,247.347 178.019 C 246.684 176.895,246.623 176.874,246.120 177.592 C 245.641 178.277,245.489 178.295,244.496 177.776 C 243.893 177.462,243.106 177.204,242.746 177.202 C 242.386 177.201,241.813 176.775,241.473 176.255 C 241.104 175.692,239.993 175.031,238.727 174.620 C 237.557 174.241,236.229 173.587,235.777 173.168 C 235.324 172.748,233.628 171.954,232.009 171.403 C 230.390 170.852,228.757 170.123,228.381 169.783 C 228.005 169.442,225.920 168.807,223.749 168.371 C 221.577 167.935,218.849 167.224,217.687 166.790 C 213.863 165.363,198.568 164.745,188.738 165.620 " stroke="none" fill="#fc1c1c" fill-rule="evenodd"></path></g></svg>